<?xml version="1.0" encoding="UTF-8" standalone="no"?>
<svg width="130px" height="130px" viewBox="0 0 130 130" version="1.1" xmlns="http://www.w3.org/2000/svg" xmlns:xlink="http://www.w3.org/1999/xlink">
    <!-- Generator: Sketch 43.2 (39069) - http://www.bohemiancoding.com/sketch -->
    <title>網路變更</title>
    <desc>Created with Sketch.</desc>
    <defs></defs>
    <g id="Pages" stroke="none" stroke-width="1" fill="none" fill-rule="evenodd">
        <g id="index" transform="translate(-622.000000, -150.000000)">
            <g id="網路變更" transform="translate(622.000000, 150.000000)">
                <g id="ico/menu_change">
                    <rect id="Rectangle-3" fill="#CBCBCB" fill-rule="evenodd" x="0" y="0" width="130" height="130" rx="20"></rect>
                    <path d="M63.5413868,26 C55.2390162,26 48.462416,32.7766002 48.462416,41.0789708 C48.462416,46.2679527 51.1145046,50.8848685 55.1267826,53.5999019 C47.4426752,56.8953743 42,64.5187182 42,73.391051 L46.3082774,73.391051 C46.3082774,63.846782 53.9971176,56.1579415 63.5413868,56.1579415 C68.164274,56.1579415 72.293536,58.0504192 75.3891496,61.0047536 L65.6955255,70.6983776 L65.2243077,71.1695955 L65.089674,71.8427638 L63.6087037,79.449566 L62.9355353,82.6134572 L66.0994265,81.9402889 L73.7062287,80.4593185 L74.3793971,80.3246849 L74.8506149,79.853467 L96.1227344,58.5813476 C98.6257552,56.0783267 98.6257552,51.929279 96.1227344,49.4262582 C94.871225,48.1747488 93.2018602,47.5413868 91.5451897,47.5413868 C89.9179275,47.5413868 88.2782596,48.151469 87.0349618,49.3589413 L78.4857239,57.9081792 C76.6120304,56.1032738 74.3840371,54.638774 71.955991,53.5999019 C75.9682682,50.8848685 78.6203576,46.2679527 78.6203576,41.0789708 C78.6203576,32.7766 71.8437561,26 63.5413868,26 Z M63.5413868,30.3082774 C69.5153907,30.3082774 74.3120802,35.1049663 74.3120802,41.0789708 C74.3120802,47.0529746 69.5153907,51.8496642 63.5413868,51.8496642 C57.5673829,51.8496642 52.7706934,47.0529746 52.7706934,41.0789708 C52.7706934,35.104966 57.5673829,30.3082774 63.5413868,30.3082774 Z M91.5451897,51.8496642 C92.0900489,51.8496642 92.664758,52.026799 93.0934769,52.4555157 C93.9509124,53.3129512 93.9509124,54.6273377 93.0934769,55.4847732 L72.2252584,76.3529917 L68.3881989,77.1607937 L69.1960009,73.3237342 L90.0642193,52.4555157 C90.4929382,52.0267969 91.0003305,51.8496642 91.5451897,51.8496642 Z" id="Shape" fill="#FFFFFF" fill-rule="nonzero"></path>
                </g>
            </g>
        </g>
    </g>
</svg>