<?xml version="1.0" encoding="UTF-8" standalone="no"?>
<svg width="130px" height="130px" viewBox="0 0 130 130" version="1.1" xmlns="http://www.w3.org/2000/svg" xmlns:xlink="http://www.w3.org/1999/xlink">
    <!-- Generator: Sketch 43.2 (39069) - http://www.bohemiancoding.com/sketch -->
    <title>網路投保</title>
    <desc>Created with Sketch.</desc>
    <defs></defs>
    <g id="Pages" stroke="none" stroke-width="1" fill="none" fill-rule="evenodd">
        <g id="index" transform="translate(-781.000000, -150.000000)">
            <g id="網路投保" transform="translate(781.000000, 150.000000)">
                <g id="ico/menu_eapply">
                    <rect id="Rectangle-3" fill="#53C6DD" x="0" y="0" width="130" height="130" rx="20"></rect>
                    <g id="ico/insure" stroke-width="1" transform="translate(33.000000, 26.000000)">
                        <path d="M51.3481752,13.5194213 C50.7392199,13.5194213 50.1409716,13.5556971 49.5494151,13.6169906 C47.1751589,5.86773687 39.5812865,0.194957909 30.5633958,0.194957909 C19.643691,0.194957909 10.7917573,8.50335876 10.7917573,18.7531384 C10.7917573,19.609997 10.8747358,20.4480922 10.9965268,21.2736786 C5.14386485,22.1042685 0.652318189,26.8301249 0.652318189,32.5541903 C0.652318189,38.8599188 6.10079449,43.9760524 12.8193774,43.9760524 L51.3481752,43.9760524 C60.307178,43.9760524 67.5704747,37.1562088 67.5704747,28.7477369 C67.5704747,20.3380141 60.307178,13.5194213 51.3481752,13.5194213 L51.3481752,13.5194213 Z" id="Combined-Shape" stroke="#FFFFFF" stroke-width="5"></path>
                        <path d="M18.1420476,35.5370588 C17.5237238,28.86482 22.8825298,23.7236686 29.8353262,21.6546992 C27.623012,18.9965613 25.7265514,17.2240524 25.7265514,17.2240524 L43.2002204,17.1189778 L38.5413784,32.6112308 L33.3110553,25.7901363 C33.3110553,25.7901363 22.3980423,27.5488854 18.1420476,35.5370588" id="Fill-3" fill="#FFFFFF"></path>
                    </g>
                </g>
            </g>
        </g>
    </g>
</svg>