<?xml version="1.0" encoding="UTF-8" standalone="no"?>
<svg width="130px" height="130px" viewBox="0 0 130 130" version="1.1" xmlns="http://www.w3.org/2000/svg" xmlns:xlink="http://www.w3.org/1999/xlink">
    <!-- Generator: Sketch 43.2 (39069) - http://www.bohemiancoding.com/sketch -->
    <title>ico/menu_eform</title>
    <desc>Created with Sketch.</desc>
    <defs></defs>
    <g id="Pages" stroke="none" stroke-width="1" fill="none" fill-rule="evenodd">
        <g id="index" transform="translate(-942.000000, -150.000000)">
            <g id="電子單據服務" transform="translate(942.000000, 150.000000)">
                <g id="ico/menu_eform">
                    <rect id="Rectangle-3" fill="#CBCBCB" fill-rule="evenodd" x="0" y="0" width="130" height="130" rx="20"></rect>
                    <path d="M44,19 L44,21.4 L44,64.6 L44,67 L46.4,67 L53.6,67 L53.6,74.2 L53.6,76.6 L56,76.6 L89.6,76.6 L92,76.6 L92,74.2 L92,31 L92,28.6 L89.6,28.6 L82.4,28.6 L82.4,21.4 L82.4,19 L80,19 L46.4,19 L44,19 Z M48.3714076,23.3714338 L78.0285492,23.3714338 L78.0285492,62.628576 L48.3714076,62.628576 L48.3714076,23.3714338 Z M82.685755,32.9714312 L87.628612,32.9714312 L87.628612,72.2285734 L57.9714704,72.2285734 L57.9714704,67.3214306 L80.2143266,67.3214306 L82.685755,67.3214306 L82.685755,64.8678592 L82.685755,32.9714312 Z" id="Shape" fill="#FFFFFF" fill-rule="nonzero"></path>
                    <path d="M62.874,32.884 C65.934,32.884 68.274,33.892 69.894,35.98 C71.37,37.852 72.126,40.48 72.126,43.828 L58.194,43.828 C58.338,45.556 58.806,46.888 59.598,47.788 C60.39,48.688 61.542,49.156 63.018,49.156 C64.278,49.156 65.286,48.868 66.078,48.292 C66.69,47.824 67.23,47.068 67.734,46.024 L71.838,46.024 C71.406,47.752 70.542,49.228 69.246,50.38 C67.59,51.784 65.538,52.504 63.054,52.504 C60.282,52.504 58.086,51.64 56.466,49.948 C54.738,48.184 53.874,45.772 53.874,42.676 C53.874,39.904 54.666,37.6 56.322,35.728 C57.906,33.82 60.102,32.884 62.874,32.884 Z M62.982,36.232 C61.614,36.232 60.57,36.592 59.778,37.384 C59.022,38.14 58.518,39.256 58.266,40.732 L67.842,40.732 C67.482,37.708 65.862,36.232 62.982,36.232 Z" id="e" fill="#FFFFFF" fill-rule="evenodd"></path>
                </g>
            </g>
        </g>
    </g>
</svg>