<?xml version="1.0" encoding="UTF-8" standalone="no"?>
<svg width="21px" height="16px" viewBox="0 0 21 16" version="1.1" xmlns="http://www.w3.org/2000/svg" xmlns:xlink="http://www.w3.org/1999/xlink">
    <!-- Generator: Sketch 43.2 (39069) - http://www.bohemiancoding.com/sketch -->
    <title>ic_alerts</title>
    <desc>Created with Sketch.</desc>
    <defs></defs>
    <g id="Pages" stroke="none" stroke-width="1" fill="none" fill-rule="evenodd" stroke-linecap="round" stroke-linejoin="round">
        <g id="login" transform="translate(-194.000000, -609.000000)" stroke="#5EC21B">
            <g id="news" transform="translate(182.000000, 592.000000)">
                <g id="ico/alertsmsg" transform="translate(8.000000, 11.000000)">
                    <g id="ic_alerts" transform="translate(2.000000, 2.000000)">
                        <g id="Group" transform="translate(3.000000, 5.000000)" stroke-width="2">
                            <path d="M3,4 C1.34314575,4 0,5.34314575 0,7 C0,8.65685425 1.34314575,10 3,10 L7,10 L7,4 L3,4 Z" id="Combined-Shape"></path>
                            <path d="M16,10 C17.6568542,10 19,8.65685425 19,7 C19,5.34314575 17.6568542,4 16,4 L16,10 Z" id="Oval-4"></path>
                            <path d="M4,10 L4,14" id="Line"></path>
                            <polygon id="Path-6" points="7 4 16 0 16 14 7 10"></polygon>
                        </g>
                    </g>
                </g>
            </g>
        </g>
    </g>
</svg>