<?xml version="1.0" encoding="UTF-8" standalone="no"?>
<svg width="22px" height="22px" viewBox="0 0 22 22" version="1.1" xmlns="http://www.w3.org/2000/svg" xmlns:xlink="http://www.w3.org/1999/xlink">
    <!-- Generator: Sketch 43.2 (39069) - http://www.bohemiancoding.com/sketch -->
    <title>ico/policylist</title>
    <desc>Created with Sketch.</desc>
    <defs></defs>
    <g id="Pages" stroke="none" stroke-width="1" fill="none" fill-rule="evenodd">
        <g id="index" transform="translate(-208.000000, -390.000000)">
            <g id="ico/policylist" transform="translate(208.000000, 390.000000)">
                <g id="ico/member">
                    <circle id="Oval" fill="#404040" cx="11" cy="11" r="11"></circle>
                    <g id="icon" transform="translate(5.000000, 4.000000)" fill="#FFFFFF">
                        <polygon id="Fill-1" points="1.78943243 3.99503643 7.69933784 3.99503643 7.69933784 3.04951801 1.78943243 3.04951801"></polygon>
                        <path d="M9.65478378,10.0116409 C9.18660811,10.4739097 8.36497297,10.4739097 7.8967973,10.0116409 C7.41193243,9.53255276 7.41193243,8.75505328 7.8967973,8.27596518 C8.13097297,8.04483075 8.44385135,7.91721264 8.77640541,7.91721264 C9.10913514,7.91721264 9.42060811,8.04483075 9.65531081,8.27596518 C9.89036486,8.50692622 10.0194865,8.81591464 10.0194865,9.14414981 C10.0194865,9.47221158 9.88948649,9.77981285 9.65478378,10.0116409 L9.65478378,10.0116409 Z M10.5939459,10.1583323 C11.0519324,9.35967876 10.9191216,8.34185497 10.2526081,7.68469105 C9.85856757,7.29559452 9.33452703,7.08093254 8.775,7.08093254 C8.21582432,7.08093254 7.69072973,7.29559452 7.29651351,7.68469105 C6.90212162,8.07396097 6.68463514,8.59119579 6.68463514,9.14414981 C6.68463514,9.6948497 6.90212162,10.2129515 7.29651351,10.6034352 C7.69072973,10.9911445 8.21494595,11.2058065 8.77341892,11.2058065 C9.13777027,11.2058065 9.49017568,11.1144278 9.80340541,10.9401667 L12.1458649,13.2520312 L12.9364054,12.4710638 L10.5939459,10.1583323 L10.5939459,10.1583323 Z" id="Fill-2"></path>
                        <path d="M9.41614595,11.7261104 L1.17625405,11.7261104 C1.04555135,11.7261104 0.93997027,11.6212069 0.93997027,11.4935888 L0.93997027,1.33425082 C0.93997027,1.20524556 1.04555135,1.10103566 1.17625405,1.10103566 L9.41614595,1.10103566 C9.54702432,1.10103566 9.65172703,1.20524556 9.65172703,1.33425082 L9.65172703,6.51682927 C9.99271351,6.5905218 10.3108622,6.73426557 10.5924703,6.93991106 L10.5924703,1.33425082 C10.5924703,0.694252931 10.0654432,0.173376834 9.41614595,0.173376834 L1.17625405,0.173376834 C0.527659459,0.173376834 -7.02702703e-05,0.694252931 -7.02702703e-05,1.33425082 L-7.02702703e-05,11.4935888 C-7.02702703e-05,12.1330665 0.527659459,12.6539426 1.17625405,12.6539426 L9.41614595,12.6539426 C9.90803784,12.6539426 10.1408081,12.5389823 10.3159568,12.1152069 L9.88941622,11.6942059 C9.73236216,11.7594021 9.48378108,11.7261104 9.41614595,11.7261104" id="Fill-4"></path>
                        <polygon id="Fill-7" points="1.78943243 6.65993148 7.69933784 6.65993148 7.69933784 5.71441306 1.78943243 5.71441306"></polygon>
                    </g>
                </g>
            </g>
        </g>
    </g>
</svg>