<?xml version="1.0" encoding="UTF-8" standalone="no"?>
<svg width="130px" height="130px" viewBox="0 0 130 130" version="1.1" xmlns="http://www.w3.org/2000/svg" xmlns:xlink="http://www.w3.org/1999/xlink">
    <!-- Generator: Sketch 43.2 (39069) - http://www.bohemiancoding.com/sketch -->
    <title>保單查詢</title>
    <desc>Created with Sketch.</desc>
    <defs></defs>
    <g id="Pages" stroke="none" stroke-width="1" fill="none" fill-rule="evenodd">
        <g id="index" transform="translate(-462.000000, -150.000000)">
            <g id="保單查詢" transform="translate(462.000000, 150.000000)">
                <g id="ico/menu_query">
                    <rect id="Rectangle-3" fill="#53C6DD" x="0" y="0" width="130" height="130" rx="20"></rect>
                    <path d="M90.2001706,23.6098081 L43.1601706,23.6098081 C40.6860906,23.6098081 38.6801706,25.6157281 38.6801706,28.0898081 L38.6801706,77.3698081 C38.6801706,79.8438881 40.6860906,81.8498081 43.1601706,81.8498081 L90.2001706,81.8498081 C92.6742506,81.8498081 94.6801706,79.8438881 94.6801706,77.3698081 L94.6801706,28.0898081 C94.6801706,25.6157281 92.6742506,23.6098081 90.2001706,23.6098081 L90.2001706,23.6098081 Z M89.0308228,77.2244257 L43.8860281,77.2244257 C43.2937714,77.2244257 42.811152,76.7414223 42.811152,76.1486944 L42.811152,28.8165208 C42.811152,28.2237929 43.2937714,27.7407896 43.8860281,27.7407896 L89.0308228,27.7407896 C89.6230796,27.7407896 90.1056989,28.2237929 90.1056989,28.8165208 L90.1056989,76.1486944 C90.1056989,76.7414223 89.6230796,77.2244257 89.0308228,77.2244257 Z M69.0711249,37.5882794 L86.5777735,37.5882794 L86.5777735,40.870776 L69.0711249,40.870776 L69.0711249,37.5882794 L69.0711249,37.5882794 Z M47.1878142,57.283259 L64.6944628,57.283259 L64.6944628,60.5657556 L47.1878142,60.5657556 L47.1878142,57.283259 L47.1878142,57.283259 Z M69.0711249,47.4357692 L86.5777735,47.4357692 L86.5777735,50.7182658 L69.0711249,50.7182658 L69.0711249,47.4357692 L69.0711249,47.4357692 Z M69.0711249,57.283259 L86.5777735,57.283259 L86.5777735,60.5657556 L69.0711249,60.5657556 L69.0711249,57.283259 L69.0711249,57.283259 Z M69.0711249,67.1307489 L86.5777735,67.1307489 L86.5777735,70.4132455 L69.0711249,70.4132455 L69.0711249,67.1307489 L69.0711249,67.1307489 Z M47.1878142,67.1307489 L64.6944628,67.1307489 L64.6944628,70.4132455 L47.1878142,70.4132455 L47.1878142,67.1307489 L47.1878142,67.1307489 Z M64.2644557,36.0170577 C66.2952269,38.153963 66.2963211,42.0152731 64.2644557,44.1532726 C64.2644557,44.1532726 58.1294695,51.8124313 55.9411385,51.8124313 C53.7528074,51.8124313 47.6178212,44.1532726 47.6178212,44.1532726 C45.5859558,42.0163673 45.58705,38.1550571 47.6178212,36.0170577 C49.6485925,33.8790582 52.9431249,33.8801524 54.9749903,36.0170577 L55.9422326,37.0335375 L56.909475,36.0170577 C58.939152,33.8801524 62.2336845,33.8801524 64.2644557,36.0170577 L64.2644557,36.0170577 Z" id="ico/query" fill="#FFFFFF"></path>
                </g>
            </g>
        </g>
    </g>
</svg>